<svg xmlns="http://www.w3.org/2000/svg" width="14" height="16" fill="none">
  <path stroke="#242424" stroke-linecap="round" stroke-linejoin="round" stroke-width="1.3" d="M9.667 4v-.533c0-.747 0-1.12-.146-1.406a1.333 1.333 0 0 0-.582-.582c-.286-.146-.659-.146-1.406-.146H6.467c-.747 0-1.12 0-1.406.146-.25.128-.455.331-.582.582-.146.286-.146.659-.146 1.406V4m1.334 3.667V11m2.666-3.333V11M1 4h12m-1.333 0v7.467c0 1.12 0 1.68-.218 2.108a2 2 0 0 1-.874.874c-.428.218-.988.218-2.108.218H5.533c-1.12 0-1.68 0-2.108-.218a2 2 0 0 1-.874-.874c-.218-.428-.218-.988-.218-2.108V4"/>
</svg>
