<svg width="44" height="44" viewBox="0 0 44 44" fill="none" xmlns="http://www.w3.org/2000/svg">
<rect x="0.5" y="0.5" width="43" height="43" rx="9.5" stroke="currentcolor" stroke-opacity="0.1"/>
<g opacity="0.8">
<path d="M25.0804 12.0601C25.2904 12.0601 25.5004 12.0601 25.9204 12.0601V15.2101C25.7104 15.2101 25.2904 15.2101 24.8704 15.2101C24.4504 15.2101 24.0304 15.2101 23.8204 15.4201C23.6104 15.6301 23.6104 15.8401 23.6104 16.3301C23.6104 16.7501 23.6104 17.0301 23.6104 17.4501H25.9204V20.1101H23.6104V31.6601H20.0404V20.0401H18.1504V17.3801H20.0404V16.4701C20.0404 14.9301 20.2504 13.8101 20.6704 13.3201C21.3004 12.4101 22.5604 11.9901 24.4504 11.9901C24.6604 12.0601 24.8704 12.0601 25.0804 12.0601Z" fill="currentcolor"/>
</g>
</svg>
