<svg width="44" height="44" viewBox="0 0 44 44" fill="none" xmlns="http://www.w3.org/2000/svg">
<rect x="0.5" y="0.5" width="43" height="43" rx="9.5" stroke="currentcolor" stroke-opacity="0.1"/>
<g opacity="0.8">
<path fill-rule="evenodd" clip-rule="evenodd" d="M29.2104 13.2499C28.0203 13.1799 25.5703 13.1099 21.8604 13.1099H21.3703C17.8003 13.1099 15.4204 13.1799 14.2304 13.3199C12.6204 13.4599 11.5003 13.8799 10.8703 14.4399C10.3103 14.9299 9.89036 15.8399 9.75036 17.0299C9.68036 17.7999 9.61035 19.4099 9.61035 21.8599V22.2099C9.61035 24.5199 9.68034 26.1299 9.82034 26.8999C10.0303 28.0199 10.3804 28.8599 11.0804 29.3499C11.7804 29.9099 12.9704 30.2599 14.6504 30.3999C15.8404 30.4699 18.2904 30.5399 22.0004 30.5399H22.4904C26.0604 30.5399 28.4404 30.4699 29.6304 30.3299C31.2404 30.1899 32.3604 29.7699 32.9904 29.2099C33.5504 28.7199 33.9703 27.8099 34.1103 26.6199C34.1803 25.8499 34.2504 24.2399 34.2504 21.7899V21.4399C34.2504 19.1299 34.1804 17.5199 34.0404 16.7499C33.8304 15.6299 33.4804 14.7899 32.7804 14.2999C32.0804 13.7399 30.8904 13.3899 29.2104 13.2499ZM26.4804 21.8599L18.7804 26.4799V17.2399L26.4804 21.8599Z" fill="currentcolor"/>
</g>
</svg>
