<svg xmlns="http://www.w3.org/2000/svg" width="24" height="24" fill="none">
  <path fill="#F4F4F4" d="M6.15 13.101c1.16-.459 2.09-.339 2.79.361.7.7.908 1.816.623 3.347-.218 1.138-.7 2.013-1.443 2.625-.722.59-1.565.886-2.527.886-1.313 0-2.22-.503-2.723-1.51-.504-1.027-.602-2.405-.296-4.134.175-.94.46-1.892.853-2.854.394-.963.92-1.947 1.575-2.953.657-1.007 1.51-1.882 2.56-2.625A8.418 8.418 0 0 1 11.04 4.8l-.328 3.478c-1.072.219-2.024.776-2.855 1.673-.831.875-1.4 1.925-1.706 3.15Zm9.877 0c1.16-.459 2.09-.339 2.79.361.7.7.907 1.816.623 3.347-.219 1.138-.7 2.013-1.444 2.625-.722.59-1.564.886-2.526.886-1.313 0-2.22-.503-2.724-1.51-.503-1.027-.601-2.405-.295-4.134.175-.94.46-1.892.853-2.854.394-.963.919-1.947 1.575-2.953.656-1.007 1.51-1.882 2.56-2.625A8.418 8.418 0 0 1 20.915 4.8l-.328 3.478c-1.072.219-2.023.776-2.854 1.673-.832.875-1.4 1.925-1.707 3.15Z"/>
</svg>
