<svg xmlns="http://www.w3.org/2000/svg" width="34" height="32" fill="none">
  <circle cx="16" cy="16" r="16" fill="#F4F4F4" fill-opacity=".2"/>
  <path fill="#F4F4F4" d="M24.73 11.907a.77.77 0 0 0-1.067-.093l-2.1 1.723-.965-2.337a.722.722 0 0 0-.146-.227 2.03 2.03 0 0 0-1.012-1.01 2.12 2.12 0 0 0-.628-.164c-.047-.023-.09-.055-.142-.071l-3.695-1.006a.775.775 0 0 0-.586.078.732.732 0 0 0-.46.42l-1.391 3.495c-.15.38.042.809.432.958a.765.765 0 0 0 .98-.423l1.175-2.951 1.683.457c-.041.065-.086.125-.119.195l-2.157 4.568c-.031.067-.048.135-.07.204l-2.621 4.295-4.387 1.434a1.081 1.081 0 0 0-.235 1.531c.369.486 1.07.59 1.566.23l4.489-1.51c.137-.098.237-.225.313-.363.056-.058.12-.105.164-.178l1.563-2.56 2.774 2.31-2.969 3.269a1.076 1.076 0 0 0 .096 1.543c.462.402 1.17.36 1.582-.093l3.704-4.078c.115-.125.184-.27.23-.422.028-.082.028-.168.035-.253 0-.044.016-.083.013-.123a1.063 1.063 0 0 0-.385-.796l-2.552-2.127a2.01 2.01 0 0 0 .453-.614l1.654-3.5.53 1.38a.69.69 0 0 0 .153.343.73.73 0 0 0 .29.198c.011.006.024.007.038.01a.753.753 0 0 0 .21.05.734.734 0 0 0 .26-.027l.003-.002c.023-.005.047 0 .07-.01a.749.749 0 0 0 .298-.213l3.013-2.498c.32-.263.185-.729-.085-1.042ZM20.92 10.126c1.165 0 2.11-.923 2.11-2.063 0-1.14-.945-2.063-2.11-2.063-1.167 0-2.112.924-2.112 2.063 0 1.14.945 2.063 2.111 2.063Z"/>
</svg>
